<mxfile host="app.diagrams.net" agent="Mozilla/5.0 (Windows NT 10.0; Win64; x64; rv:131.0) Gecko/20100101 Firefox/131.0" version="24.8.0">
  <diagram name="Page-1" id="n_4lh1sFj3woDegQUjYa">
    <mxGraphModel dx="989" dy="520" grid="1" gridSize="128" guides="1" tooltips="1" connect="1" arrows="1" fold="1" page="1" pageScale="1" pageWidth="512" pageHeight="640" math="0" shadow="0">
      <root>
        <mxCell id="0" />
        <mxCell id="1" parent="0" />
        <mxCell id="1jKkxahROvmEIg1E3fd9-25" value="" style="endArrow=none;html=1;rounded=0;hachureGap=4;fontFamily=Architects Daughter;fontSource=https%3A%2F%2Ffonts.googleapis.com%2Fcss%3Ffamily%3DArchitects%2BDaughter;" edge="1" parent="1">
          <mxGeometry width="50" height="50" relative="1" as="geometry">
            <mxPoint x="128" y="95" as="sourcePoint" />
            <mxPoint x="256" y="95" as="targetPoint" />
          </mxGeometry>
        </mxCell>
        <mxCell id="1jKkxahROvmEIg1E3fd9-26" value="" style="endArrow=none;html=1;rounded=0;hachureGap=4;fontFamily=Architects Daughter;fontSource=https%3A%2F%2Ffonts.googleapis.com%2Fcss%3Ffamily%3DArchitects%2BDaughter;" edge="1" parent="1">
          <mxGeometry width="50" height="50" relative="1" as="geometry">
            <mxPoint x="256" y="105" as="sourcePoint" />
            <mxPoint x="256" y="95" as="targetPoint" />
          </mxGeometry>
        </mxCell>
        <mxCell id="1jKkxahROvmEIg1E3fd9-27" value="" style="endArrow=none;html=1;rounded=0;hachureGap=4;fontFamily=Architects Daughter;fontSource=https%3A%2F%2Ffonts.googleapis.com%2Fcss%3Ffamily%3DArchitects%2BDaughter;" edge="1" parent="1">
          <mxGeometry width="50" height="50" relative="1" as="geometry">
            <mxPoint x="128" y="105" as="sourcePoint" />
            <mxPoint x="128" y="95" as="targetPoint" />
          </mxGeometry>
        </mxCell>
        <mxCell id="1jKkxahROvmEIg1E3fd9-36" value="32px" style="text;html=1;align=center;verticalAlign=middle;whiteSpace=wrap;rounded=0;fontFamily=Architects Daughter;fontSource=https%3A%2F%2Ffonts.googleapis.com%2Fcss%3Ffamily%3DArchitects%2BDaughter;" vertex="1" parent="1">
          <mxGeometry x="22" y="175" width="60" height="30" as="geometry" />
        </mxCell>
        <mxCell id="1jKkxahROvmEIg1E3fd9-38" value="32px" style="text;html=1;align=center;verticalAlign=middle;whiteSpace=wrap;rounded=0;fontFamily=Architects Daughter;fontSource=https%3A%2F%2Ffonts.googleapis.com%2Fcss%3Ffamily%3DArchitects%2BDaughter;" vertex="1" parent="1">
          <mxGeometry x="163" y="44" width="60" height="30" as="geometry" />
        </mxCell>
        <mxCell id="1jKkxahROvmEIg1E3fd9-39" value="32px" style="text;html=1;align=center;verticalAlign=middle;whiteSpace=wrap;rounded=0;fontFamily=Architects Daughter;fontSource=https%3A%2F%2Ffonts.googleapis.com%2Fcss%3Ffamily%3DArchitects%2BDaughter;" vertex="1" parent="1">
          <mxGeometry x="291" y="44" width="60" height="30" as="geometry" />
        </mxCell>
        <mxCell id="1jKkxahROvmEIg1E3fd9-54" value="" style="shape=image;verticalLabelPosition=bottom;labelBackgroundColor=default;verticalAlign=top;aspect=fixed;imageAspect=0;image=data:image/png,iVBORw0KGgoAAAANSUhEUgAAAQAAAAGACAYAAABCwry+AAAAAXNSR0IArs4c6QAAByZJREFUeJzt3T1uU1kYgOHxKAuhgSYly6ChZRNUtFS0VGyCloZlTJmGaWYnmW5k3Qifubr2/fH7PB2KgaNYefWdL7Fzenx88/wH/E9PT79OW5+B35v79fznrQ4C7J8AQJgAQNhpdGf4/OnjWmfhBr58/bbo77vzH9vo69sEAGECAGECAGEvdgDu/PdttBNw579v0693EwCECQCECQCEPWx9ALY1987vtSP7Nno+px83AUCYAECYAECYAECYAECYAECYAECYAECYAECYAECYAECYAECYAECYAECYAECYAECYAECYAECYAECYAECYAECYAECYAECYAECYAECYAECYAECYAECYAECYAECYAECYAECYAECYAECYAECYAECYAECYAECYAECYAECYAECYAECYAECYAECYAECYAECYAECYAECYAECYAECYAECYAECYAECYAECYAECYAECYAECYAECYAECYAECYAECYAECYAECYAECYAECYAECYAECYAECYAECYAECYAECYAECYAECYAECYAECYAECYAECYAECYAECYAECYAECYAECYAECYAECYAECYAECYAECYAECYAECYAECYAECYAECYAECYAECYAECYAECYAECYAECYAECYAECYAECYAECYAEDYw9YHYFuPj2+ez//89PTrdOnxo4+zb9Pn2wQAYQIAYQIAYafpnWDq86ePa52FG/jy9duiv+/Of2yjr28TAIQJAIQJAIQNdwBwzk5g3+Z+PZsAIEwAIEwAIOzh54/vW5+BDb16/fbind6O6NhGOxsTAIQJAIQJAIS9eD+Ad+8/bHEOVjLa+cx9fwD2Zfp8jZ5PEwCECQCECQCEDd8T0M8JHNtop+POf99GOwETAIQJAIQJAIT5vQBx7vwtfg4A+I8AQJgAQJgAQJgAQJgAQJgAQJgAQJgAQJgAQJgAQJgAQJgAQJgAQJgAQJgAQJgAQJgAQJgAQJgAQJgAQJgAQJgAQJgAQJgAQJgAQJgAQJgAQJgAQJgAQJgAQJgAQJgAQJgAQJgAQNjD1gdY27v3Hy5+/OeP7yudBLZnAoAwAYAwAYCwu98BTO/8nz99nPV4OwHumQkAwgQAwgQAwu5uBzD3zj81fbydAPfMBABhAgBhAgBhh98BLL3zj9gJcM9MABAmABAmABB2uB3A0jv/l6/fLn589O/ZCXBPTAAQJgAQJgAQtvsdwLXv/KM7+tz/z06AIzMBQJgAQJgAQNjudgBr3/mnpo+3E+CemQAgTAAgTAAgbHc7gLl38KV3/qOdB67JBABhAgBhAgBhu9sBTI3u4Gvfsfd2HljCBABhAgBhAgBhu98BTO3tjr2388AcJgAIEwAIEwAIEwAIEwAIEwAIEwAIEwAIEwAIEwAIEwAIEwAIEwAIEwAIEwAIEwAIEwAIEwAIEwAIEwAIEwAIEwAIEwAIEwAIEwAIEwAIEwAIEwAIEwAIEwAIEwAIe9j6AGzr8fHN8/mfn55+nbY6C7c3fb5NABAmABAmABA23AG8e/9hjXOwkemd307gvoyeTxMAhAkAhAkAhJ3++fuv5/HDuFevXr+9eMe3EziWuc+XCQDCBADCBADCTtM7Ay3u9G0mAAgTAAgTAAh78VqAnz++b3EOVuK1HZwzAUCYAECYAECY9wO4c3Y6XGICgDABgDABgLDZvxdgdKec7gzcQZeZ+/m0s2EOEwCECQCECQCELf7dgO78tzX9fPp8c00mAAgTAAgTAAibvQNwB93WaCcAc5gAIEwAIEwAIOzqrwVgXXYCLGECgDABgDABgLDFrwW4ttEddu87iKOfnxYTAIQJAIQJAIRtvgNY+p53W9+pj35+2kwAECYAECYAELb6DmDpHXjr98g7+vnhnAkAwgQAwgQAwgQAwgQAwgQAwgQAwlb/OYCl3wff+vvmRz8/nDMBQJgAQJgAQNjm7wcw933t93ZnPvr5aTMBQJgAQJgAQNjmO4Cpo9+Rj35+WkwAECYAECYAECYAECYAECYAECYAECYAECYAECYAECYAECYAECYAECYAECYAECYAECYAECYAECYAECYAECYAECYAECYAELa73wtw9N+td/Tz02ICgDABgDABgLDNdwDTO/Pojjz38bd29PPTZgKAMAGAMAGAsNV3AEvvwNPHr32nPvr54ZwJAMIEAMIEAMIEAMIEAMIEAMIEAMJW/zmApd8H3/r75kc/P5wzAUCYAECYAEDY5u8HMLpTjx6/taOfnzYTAIQJAIQJAIRtvgOYOvod+ejnp8UEAGECAGECAGGzdwB+ln1fRj93AJeYACBMACBMACBs9g7A+9pva/T5thNgDhMAhAkAhAkAhC1+LYCdwG35fHJLJgAIEwAIEwAIW/xagGs/nst8PrkmEwCECQCECQCEDXcAvu8M98sEAGECAGECAGEvdgC+zwwdJgAIEwAIEwAI+xeHzpSr8wjSswAAAABJRU5ErkJggg==;" vertex="1" parent="1">
          <mxGeometry x="128" y="127" width="256" height="384" as="geometry" />
        </mxCell>
        <mxCell id="1jKkxahROvmEIg1E3fd9-55" value="" style="endArrow=none;html=1;rounded=0;hachureGap=4;fontFamily=Architects Daughter;fontSource=https%3A%2F%2Ffonts.googleapis.com%2Fcss%3Ffamily%3DArchitects%2BDaughter;" edge="1" parent="1">
          <mxGeometry width="50" height="50" relative="1" as="geometry">
            <mxPoint x="256" y="95" as="sourcePoint" />
            <mxPoint x="384" y="95" as="targetPoint" />
          </mxGeometry>
        </mxCell>
        <mxCell id="1jKkxahROvmEIg1E3fd9-56" value="" style="endArrow=none;html=1;rounded=0;hachureGap=4;fontFamily=Architects Daughter;fontSource=https%3A%2F%2Ffonts.googleapis.com%2Fcss%3Ffamily%3DArchitects%2BDaughter;" edge="1" parent="1">
          <mxGeometry width="50" height="50" relative="1" as="geometry">
            <mxPoint x="384" y="105" as="sourcePoint" />
            <mxPoint x="384" y="95" as="targetPoint" />
          </mxGeometry>
        </mxCell>
        <mxCell id="1jKkxahROvmEIg1E3fd9-57" value="" style="endArrow=none;html=1;rounded=0;hachureGap=4;fontFamily=Architects Daughter;fontSource=https%3A%2F%2Ffonts.googleapis.com%2Fcss%3Ffamily%3DArchitects%2BDaughter;" edge="1" parent="1">
          <mxGeometry width="50" height="50" relative="1" as="geometry">
            <mxPoint x="256" y="105" as="sourcePoint" />
            <mxPoint x="256" y="95" as="targetPoint" />
          </mxGeometry>
        </mxCell>
        <mxCell id="1jKkxahROvmEIg1E3fd9-62" value="" style="endArrow=none;html=1;rounded=0;hachureGap=4;fontFamily=Architects Daughter;fontSource=https%3A%2F%2Ffonts.googleapis.com%2Fcss%3Ffamily%3DArchitects%2BDaughter;" edge="1" parent="1">
          <mxGeometry width="50" height="50" relative="1" as="geometry">
            <mxPoint x="97" y="127" as="sourcePoint" />
            <mxPoint x="97" y="255" as="targetPoint" />
          </mxGeometry>
        </mxCell>
        <mxCell id="1jKkxahROvmEIg1E3fd9-63" value="" style="endArrow=none;html=1;rounded=0;hachureGap=4;fontFamily=Architects Daughter;fontSource=https%3A%2F%2Ffonts.googleapis.com%2Fcss%3Ffamily%3DArchitects%2BDaughter;" edge="1" parent="1">
          <mxGeometry width="50" height="50" relative="1" as="geometry">
            <mxPoint x="97" y="255" as="sourcePoint" />
            <mxPoint x="107" y="255" as="targetPoint" />
          </mxGeometry>
        </mxCell>
        <mxCell id="1jKkxahROvmEIg1E3fd9-64" value="" style="endArrow=none;html=1;rounded=0;hachureGap=4;fontFamily=Architects Daughter;fontSource=https%3A%2F%2Ffonts.googleapis.com%2Fcss%3Ffamily%3DArchitects%2BDaughter;" edge="1" parent="1">
          <mxGeometry width="50" height="50" relative="1" as="geometry">
            <mxPoint x="97" y="127" as="sourcePoint" />
            <mxPoint x="107" y="127" as="targetPoint" />
          </mxGeometry>
        </mxCell>
        <mxCell id="1jKkxahROvmEIg1E3fd9-65" value="" style="endArrow=none;html=1;rounded=0;hachureGap=4;fontFamily=Architects Daughter;fontSource=https%3A%2F%2Ffonts.googleapis.com%2Fcss%3Ffamily%3DArchitects%2BDaughter;" edge="1" parent="1">
          <mxGeometry width="50" height="50" relative="1" as="geometry">
            <mxPoint x="97" y="255" as="sourcePoint" />
            <mxPoint x="97" y="383" as="targetPoint" />
          </mxGeometry>
        </mxCell>
        <mxCell id="1jKkxahROvmEIg1E3fd9-66" value="" style="endArrow=none;html=1;rounded=0;hachureGap=4;fontFamily=Architects Daughter;fontSource=https%3A%2F%2Ffonts.googleapis.com%2Fcss%3Ffamily%3DArchitects%2BDaughter;" edge="1" parent="1">
          <mxGeometry width="50" height="50" relative="1" as="geometry">
            <mxPoint x="97" y="383" as="sourcePoint" />
            <mxPoint x="107" y="383" as="targetPoint" />
          </mxGeometry>
        </mxCell>
        <mxCell id="1jKkxahROvmEIg1E3fd9-67" value="" style="endArrow=none;html=1;rounded=0;hachureGap=4;fontFamily=Architects Daughter;fontSource=https%3A%2F%2Ffonts.googleapis.com%2Fcss%3Ffamily%3DArchitects%2BDaughter;" edge="1" parent="1">
          <mxGeometry width="50" height="50" relative="1" as="geometry">
            <mxPoint x="97" y="255" as="sourcePoint" />
            <mxPoint x="107" y="255" as="targetPoint" />
          </mxGeometry>
        </mxCell>
        <mxCell id="1jKkxahROvmEIg1E3fd9-68" value="" style="endArrow=none;html=1;rounded=0;hachureGap=4;fontFamily=Architects Daughter;fontSource=https%3A%2F%2Ffonts.googleapis.com%2Fcss%3Ffamily%3DArchitects%2BDaughter;" edge="1" parent="1">
          <mxGeometry width="50" height="50" relative="1" as="geometry">
            <mxPoint x="97" y="383" as="sourcePoint" />
            <mxPoint x="97" y="511" as="targetPoint" />
          </mxGeometry>
        </mxCell>
        <mxCell id="1jKkxahROvmEIg1E3fd9-69" value="" style="endArrow=none;html=1;rounded=0;hachureGap=4;fontFamily=Architects Daughter;fontSource=https%3A%2F%2Ffonts.googleapis.com%2Fcss%3Ffamily%3DArchitects%2BDaughter;" edge="1" parent="1">
          <mxGeometry width="50" height="50" relative="1" as="geometry">
            <mxPoint x="97" y="511" as="sourcePoint" />
            <mxPoint x="107" y="511" as="targetPoint" />
          </mxGeometry>
        </mxCell>
        <mxCell id="1jKkxahROvmEIg1E3fd9-71" value="32px" style="text;html=1;align=center;verticalAlign=middle;whiteSpace=wrap;rounded=0;fontFamily=Architects Daughter;fontSource=https%3A%2F%2Ffonts.googleapis.com%2Fcss%3Ffamily%3DArchitects%2BDaughter;" vertex="1" parent="1">
          <mxGeometry x="22" y="304" width="60" height="30" as="geometry" />
        </mxCell>
        <mxCell id="1jKkxahROvmEIg1E3fd9-72" value="32px" style="text;html=1;align=center;verticalAlign=middle;whiteSpace=wrap;rounded=0;fontFamily=Architects Daughter;fontSource=https%3A%2F%2Ffonts.googleapis.com%2Fcss%3Ffamily%3DArchitects%2BDaughter;" vertex="1" parent="1">
          <mxGeometry x="22" y="431" width="60" height="30" as="geometry" />
        </mxCell>
      </root>
    </mxGraphModel>
  </diagram>
</mxfile>
